<mxfile host="app.diagrams.net" modified="2023-06-14T03:42:26.225Z" agent="Mozilla/5.0 (Macintosh; Intel Mac OS X 10_15_7) AppleWebKit/537.36 (KHTML, like Gecko) Chrome/113.0.0.0 Safari/537.36" etag="HyGFFNeyHzTnYBfvZoK2" version="21.3.7" type="github">
  <diagram id="Nbi2OOFG4A7icGLgDpQb" name="第 1 页">
    <mxGraphModel dx="2261" dy="716" grid="1" gridSize="10" guides="1" tooltips="1" connect="1" arrows="1" fold="1" page="1" pageScale="1" pageWidth="827" pageHeight="1169" background="none" math="0" shadow="0">
      <root>
        <mxCell id="0" />
        <mxCell id="1" parent="0" />
        <mxCell id="kk27pRFW-uQP8ShshRhL-2" value="报价流程现状" style="swimlane;childLayout=stackLayout;resizeParent=1;resizeParentMax=0;horizontal=1;startSize=40;horizontalStack=0;fillColor=#92D050;strokeColor=#82b366;fontSize=20;spacingTop=4;spacingBottom=4;swimlaneFillColor=none;arcSize=15;perimeterSpacing=0;gradientColor=none;spacing=2;" parent="1" vertex="1">
          <mxGeometry x="-460" y="50" width="1110" height="1300" as="geometry">
            <mxRectangle x="220" y="250" width="100" height="30" as="alternateBounds" />
          </mxGeometry>
        </mxCell>
        <mxCell id="kk27pRFW-uQP8ShshRhL-3" value="报价阶段" style="swimlane;startSize=30;horizontal=0;fillColor=#92D050;fontSize=14;" parent="kk27pRFW-uQP8ShshRhL-2" vertex="1">
          <mxGeometry y="40" width="1110" height="1260" as="geometry" />
        </mxCell>
        <mxCell id="OawIMf_CP--zUOg47wnV-12" value="商机渠道" style="swimlane;startSize=30;fillColor=#92D050;fontSize=14;" parent="kk27pRFW-uQP8ShshRhL-3" vertex="1">
          <mxGeometry x="30" width="270" height="1260" as="geometry" />
        </mxCell>
        <mxCell id="o-PrR6LjQrGRHSx2saqF-1" value="商机接口人" style="shape=umlActor;verticalLabelPosition=bottom;verticalAlign=top;html=1;outlineConnect=0;" parent="OawIMf_CP--zUOg47wnV-12" vertex="1">
          <mxGeometry x="113" y="100" width="30" height="60" as="geometry" />
        </mxCell>
        <mxCell id="fmweD9lnvznt-FNgvz4t-26" value="" style="edgeStyle=orthogonalEdgeStyle;rounded=0;orthogonalLoop=1;jettySize=auto;html=1;" edge="1" parent="OawIMf_CP--zUOg47wnV-12" source="fmweD9lnvznt-FNgvz4t-22">
          <mxGeometry relative="1" as="geometry">
            <mxPoint x="135" y="1070" as="targetPoint" />
          </mxGeometry>
        </mxCell>
        <mxCell id="fmweD9lnvznt-FNgvz4t-22" value="报价清单" style="shape=document;whiteSpace=wrap;html=1;boundedLbl=1;fontSize=16;fillColor=#F5F5F5;fontColor=#000000;shadow=1;sketch=0;" vertex="1" parent="OawIMf_CP--zUOg47wnV-12">
          <mxGeometry x="75" y="897" width="120" height="80" as="geometry" />
        </mxCell>
        <mxCell id="fmweD9lnvznt-FNgvz4t-27" value="结束" style="ellipse;whiteSpace=wrap;html=1;" vertex="1" parent="OawIMf_CP--zUOg47wnV-12">
          <mxGeometry x="75" y="1071" width="120" height="80" as="geometry" />
        </mxCell>
        <mxCell id="OawIMf_CP--zUOg47wnV-13" value="技术经理" style="swimlane;fillColor=#92D050;fontSize=14;startSize=30;" parent="kk27pRFW-uQP8ShshRhL-3" vertex="1">
          <mxGeometry x="840" width="270" height="1260" as="geometry" />
        </mxCell>
        <mxCell id="fmweD9lnvznt-FNgvz4t-3" value="研发工作量清单" style="shape=document;whiteSpace=wrap;html=1;boundedLbl=1;fontSize=16;fillColor=#F5F5F5;fontColor=#000000;shadow=1;sketch=0;" vertex="1" parent="OawIMf_CP--zUOg47wnV-13">
          <mxGeometry x="70" y="587" width="120" height="80" as="geometry" />
        </mxCell>
        <mxCell id="fmweD9lnvznt-FNgvz4t-9" value="指定技术经理" style="whiteSpace=wrap;html=1;fillColor=#F5F5F5;fontColor=#000000;shadow=1;sketch=0;fontSize=16;" vertex="1" parent="OawIMf_CP--zUOg47wnV-13">
          <mxGeometry x="70" y="250" width="120" height="60" as="geometry" />
        </mxCell>
        <mxCell id="OawIMf_CP--zUOg47wnV-14" value="售前" style="swimlane;startSize=30;fillColor=#92D050;fontSize=16;fontColor=#000000;" parent="kk27pRFW-uQP8ShshRhL-3" vertex="1">
          <mxGeometry x="300" width="270" height="1260" as="geometry" />
        </mxCell>
        <mxCell id="fmweD9lnvznt-FNgvz4t-29" value="" style="edgeStyle=orthogonalEdgeStyle;rounded=0;orthogonalLoop=1;jettySize=auto;html=1;" edge="1" parent="OawIMf_CP--zUOg47wnV-14" source="OawIMf_CP--zUOg47wnV-247" target="fmweD9lnvznt-FNgvz4t-28">
          <mxGeometry relative="1" as="geometry" />
        </mxCell>
        <mxCell id="OawIMf_CP--zUOg47wnV-247" value="&lt;font face=&quot;Microsoft YaHei-2&quot; data-font-src=&quot;https://fonts.cdnfonts.com/s/62899/chinese.msyh.woff&quot; style=&quot;font-size: 16px;&quot; color=&quot;#333333&quot;&gt;招标文件/建设方案/需求清单&lt;/font&gt;" style="shape=document;whiteSpace=wrap;html=1;boundedLbl=1;shadow=1;sketch=0;fontSize=12;fontColor=#FFC000;fillColor=#F5F5F5;" parent="OawIMf_CP--zUOg47wnV-14" vertex="1">
          <mxGeometry x="78" y="99" width="120" height="80" as="geometry" />
        </mxCell>
        <mxCell id="fmweD9lnvznt-FNgvz4t-21" value="" style="edgeStyle=orthogonalEdgeStyle;rounded=0;orthogonalLoop=1;jettySize=auto;html=1;" edge="1" parent="OawIMf_CP--zUOg47wnV-14" source="fmweD9lnvznt-FNgvz4t-19" target="fmweD9lnvznt-FNgvz4t-20">
          <mxGeometry relative="1" as="geometry" />
        </mxCell>
        <mxCell id="fmweD9lnvznt-FNgvz4t-19" value="报价清单" style="shape=document;whiteSpace=wrap;html=1;boundedLbl=1;fontSize=16;fillColor=#F5F5F5;fontColor=#000000;shadow=1;sketch=0;" vertex="1" parent="OawIMf_CP--zUOg47wnV-14">
          <mxGeometry x="78" y="737" width="120" height="80" as="geometry" />
        </mxCell>
        <mxCell id="fmweD9lnvznt-FNgvz4t-20" value="..." style="whiteSpace=wrap;html=1;fontSize=16;fillColor=#F5F5F5;fontColor=#000000;shadow=1;sketch=0;" vertex="1" parent="OawIMf_CP--zUOg47wnV-14">
          <mxGeometry x="78" y="907" width="120" height="60" as="geometry" />
        </mxCell>
        <mxCell id="fmweD9lnvznt-FNgvz4t-31" value="" style="edgeStyle=orthogonalEdgeStyle;rounded=0;orthogonalLoop=1;jettySize=auto;html=1;" edge="1" parent="OawIMf_CP--zUOg47wnV-14" source="fmweD9lnvznt-FNgvz4t-28" target="fmweD9lnvznt-FNgvz4t-30">
          <mxGeometry relative="1" as="geometry" />
        </mxCell>
        <mxCell id="fmweD9lnvznt-FNgvz4t-33" value="是" style="edgeLabel;html=1;align=center;verticalAlign=middle;resizable=0;points=[];" vertex="1" connectable="0" parent="fmweD9lnvznt-FNgvz4t-31">
          <mxGeometry x="-0.1667" relative="1" as="geometry">
            <mxPoint y="1" as="offset" />
          </mxGeometry>
        </mxCell>
        <mxCell id="fmweD9lnvznt-FNgvz4t-28" value="是否纯标品" style="rhombus;whiteSpace=wrap;html=1;fillColor=#F5F5F5;fontColor=#000000;shadow=1;sketch=0;fontSize=16;" vertex="1" parent="OawIMf_CP--zUOg47wnV-14">
          <mxGeometry x="98" y="259" width="80" height="80" as="geometry" />
        </mxCell>
        <mxCell id="fmweD9lnvznt-FNgvz4t-34" style="edgeStyle=orthogonalEdgeStyle;rounded=0;orthogonalLoop=1;jettySize=auto;html=1;exitX=0.5;exitY=1;exitDx=0;exitDy=0;" edge="1" parent="OawIMf_CP--zUOg47wnV-14" source="fmweD9lnvznt-FNgvz4t-30" target="fmweD9lnvznt-FNgvz4t-19">
          <mxGeometry relative="1" as="geometry" />
        </mxCell>
        <mxCell id="fmweD9lnvznt-FNgvz4t-30" value="根据标品报价模板自行报价" style="whiteSpace=wrap;html=1;fontSize=16;fillColor=#F5F5F5;fontColor=#000000;shadow=1;sketch=0;" vertex="1" parent="OawIMf_CP--zUOg47wnV-14">
          <mxGeometry x="78" y="429" width="120" height="60" as="geometry" />
        </mxCell>
        <mxCell id="OPbE7t7HaxnLKORAEwCf-74" value="产品经理" style="swimlane;fillColor=#92D050;fontSize=14;startSize=30;" parent="kk27pRFW-uQP8ShshRhL-3" vertex="1">
          <mxGeometry x="570" width="270" height="1260" as="geometry" />
        </mxCell>
        <mxCell id="o-PrR6LjQrGRHSx2saqF-6" value="需求梳理" style="whiteSpace=wrap;html=1;fillColor=#F5F5F5;fontColor=#000000;shadow=1;sketch=0;fontSize=16;" parent="OPbE7t7HaxnLKORAEwCf-74" vertex="1">
          <mxGeometry x="80" y="109" width="120" height="60" as="geometry" />
        </mxCell>
        <mxCell id="o-PrR6LjQrGRHSx2saqF-9" value="需求清单" style="shape=document;whiteSpace=wrap;html=1;boundedLbl=1;fontSize=16;fillColor=#F5F5F5;fontColor=#000000;shadow=1;sketch=0;" parent="OPbE7t7HaxnLKORAEwCf-74" vertex="1">
          <mxGeometry x="80" y="239" width="120" height="80" as="geometry" />
        </mxCell>
        <mxCell id="o-PrR6LjQrGRHSx2saqF-10" value="" style="edgeStyle=orthogonalEdgeStyle;rounded=0;orthogonalLoop=1;jettySize=auto;html=1;" parent="OPbE7t7HaxnLKORAEwCf-74" source="o-PrR6LjQrGRHSx2saqF-6" target="o-PrR6LjQrGRHSx2saqF-9" edge="1">
          <mxGeometry relative="1" as="geometry" />
        </mxCell>
        <mxCell id="o-PrR6LjQrGRHSx2saqF-16" value="需求可行性/工作量评估" style="whiteSpace=wrap;html=1;fontSize=16;fillColor=#F5F5F5;fontColor=#000000;shadow=1;sketch=0;" parent="OPbE7t7HaxnLKORAEwCf-74" vertex="1">
          <mxGeometry x="340" y="414" width="120" height="60" as="geometry" />
        </mxCell>
        <mxCell id="fmweD9lnvznt-FNgvz4t-15" value="" style="edgeStyle=orthogonalEdgeStyle;rounded=0;orthogonalLoop=1;jettySize=auto;html=1;" edge="1" parent="OPbE7t7HaxnLKORAEwCf-74" source="fmweD9lnvznt-FNgvz4t-12" target="fmweD9lnvznt-FNgvz4t-14">
          <mxGeometry relative="1" as="geometry" />
        </mxCell>
        <mxCell id="fmweD9lnvznt-FNgvz4t-12" value="ABCDE拆分" style="whiteSpace=wrap;html=1;fontSize=16;fillColor=#F5F5F5;fontColor=#000000;shadow=1;sketch=0;" vertex="1" parent="OPbE7t7HaxnLKORAEwCf-74">
          <mxGeometry x="80" y="597" width="120" height="60" as="geometry" />
        </mxCell>
        <mxCell id="fmweD9lnvznt-FNgvz4t-14" value="报价清单" style="shape=document;whiteSpace=wrap;html=1;boundedLbl=1;fontSize=16;fillColor=#F5F5F5;fontColor=#000000;shadow=1;sketch=0;" vertex="1" parent="OPbE7t7HaxnLKORAEwCf-74">
          <mxGeometry x="80" y="727" width="120" height="80" as="geometry" />
        </mxCell>
        <mxCell id="o-PrR6LjQrGRHSx2saqF-8" style="edgeStyle=orthogonalEdgeStyle;rounded=0;orthogonalLoop=1;jettySize=auto;html=1;exitX=0.5;exitY=0.5;exitDx=0;exitDy=0;exitPerimeter=0;entryX=0.008;entryY=0.394;entryDx=0;entryDy=0;entryPerimeter=0;" parent="kk27pRFW-uQP8ShshRhL-3" source="o-PrR6LjQrGRHSx2saqF-1" target="OawIMf_CP--zUOg47wnV-247" edge="1">
          <mxGeometry relative="1" as="geometry" />
        </mxCell>
        <mxCell id="fmweD9lnvznt-FNgvz4t-4" value="" style="edgeStyle=orthogonalEdgeStyle;rounded=0;orthogonalLoop=1;jettySize=auto;html=1;" edge="1" parent="kk27pRFW-uQP8ShshRhL-3" source="o-PrR6LjQrGRHSx2saqF-16" target="fmweD9lnvznt-FNgvz4t-3">
          <mxGeometry relative="1" as="geometry" />
        </mxCell>
        <mxCell id="fmweD9lnvznt-FNgvz4t-10" style="edgeStyle=orthogonalEdgeStyle;rounded=0;orthogonalLoop=1;jettySize=auto;html=1;exitX=1;exitY=0.5;exitDx=0;exitDy=0;" edge="1" parent="kk27pRFW-uQP8ShshRhL-3" source="o-PrR6LjQrGRHSx2saqF-9" target="fmweD9lnvznt-FNgvz4t-9">
          <mxGeometry relative="1" as="geometry" />
        </mxCell>
        <mxCell id="fmweD9lnvznt-FNgvz4t-11" style="edgeStyle=orthogonalEdgeStyle;rounded=0;orthogonalLoop=1;jettySize=auto;html=1;exitX=0.5;exitY=1;exitDx=0;exitDy=0;" edge="1" parent="kk27pRFW-uQP8ShshRhL-3" source="fmweD9lnvznt-FNgvz4t-9" target="o-PrR6LjQrGRHSx2saqF-16">
          <mxGeometry relative="1" as="geometry" />
        </mxCell>
        <mxCell id="fmweD9lnvznt-FNgvz4t-13" style="edgeStyle=orthogonalEdgeStyle;rounded=0;orthogonalLoop=1;jettySize=auto;html=1;exitX=0;exitY=0.5;exitDx=0;exitDy=0;entryX=1;entryY=0.5;entryDx=0;entryDy=0;" edge="1" parent="kk27pRFW-uQP8ShshRhL-3" source="fmweD9lnvznt-FNgvz4t-3" target="fmweD9lnvznt-FNgvz4t-12">
          <mxGeometry relative="1" as="geometry" />
        </mxCell>
        <mxCell id="fmweD9lnvznt-FNgvz4t-17" style="edgeStyle=orthogonalEdgeStyle;rounded=0;orthogonalLoop=1;jettySize=auto;html=1;exitX=0;exitY=0.5;exitDx=0;exitDy=0;entryX=1;entryY=0.5;entryDx=0;entryDy=0;" edge="1" parent="kk27pRFW-uQP8ShshRhL-3" source="fmweD9lnvznt-FNgvz4t-14">
          <mxGeometry relative="1" as="geometry">
            <mxPoint x="498" y="767" as="targetPoint" />
          </mxGeometry>
        </mxCell>
        <mxCell id="fmweD9lnvznt-FNgvz4t-18" value="邮件" style="edgeLabel;html=1;align=center;verticalAlign=middle;resizable=0;points=[];" vertex="1" connectable="0" parent="fmweD9lnvznt-FNgvz4t-17">
          <mxGeometry x="-0.0526" y="1" relative="1" as="geometry">
            <mxPoint as="offset" />
          </mxGeometry>
        </mxCell>
        <mxCell id="fmweD9lnvznt-FNgvz4t-23" style="edgeStyle=orthogonalEdgeStyle;rounded=0;orthogonalLoop=1;jettySize=auto;html=1;exitX=0;exitY=0.5;exitDx=0;exitDy=0;" edge="1" parent="kk27pRFW-uQP8ShshRhL-3" source="fmweD9lnvznt-FNgvz4t-20" target="fmweD9lnvznt-FNgvz4t-22">
          <mxGeometry relative="1" as="geometry" />
        </mxCell>
        <mxCell id="fmweD9lnvznt-FNgvz4t-24" value="邮件" style="edgeLabel;html=1;align=center;verticalAlign=middle;resizable=0;points=[];" vertex="1" connectable="0" parent="fmweD9lnvznt-FNgvz4t-23">
          <mxGeometry x="0.0588" y="2" relative="1" as="geometry">
            <mxPoint as="offset" />
          </mxGeometry>
        </mxCell>
        <mxCell id="fmweD9lnvznt-FNgvz4t-32" style="edgeStyle=orthogonalEdgeStyle;rounded=0;orthogonalLoop=1;jettySize=auto;html=1;exitX=1;exitY=0.5;exitDx=0;exitDy=0;entryX=0;entryY=0.5;entryDx=0;entryDy=0;" edge="1" parent="kk27pRFW-uQP8ShshRhL-3" source="fmweD9lnvznt-FNgvz4t-28" target="o-PrR6LjQrGRHSx2saqF-6">
          <mxGeometry relative="1" as="geometry" />
        </mxCell>
      </root>
    </mxGraphModel>
  </diagram>
</mxfile>
